<svg xmlns="http://www.w3.org/2000/svg" viewBox="0 0 1200 630" role="img" aria-labelledby="title desc">
  <title id="title">Richard Sartell portfolio preview</title>
  <desc id="desc">Portfolio preview card for Richard Sartell, Electrical and Computer Engineer.</desc>
  <rect width="1200" height="630" fill="#f6f8f8"/>
  <path d="M0 96h1200M0 192h1200M0 288h1200M0 384h1200M0 480h1200M0 576h1200M120 0v630M240 0v630M360 0v630M480 0v630M600 0v630M720 0v630M840 0v630M960 0v630M1080 0v630" stroke="#d7dfdf" stroke-width="1"/>
  <rect x="96" y="96" width="1008" height="438" rx="8" fill="#ffffff" stroke="#b8c7c7" stroke-width="2"/>
  <text x="150" y="235" fill="#102023" font-family="Segoe UI, Arial, sans-serif" font-size="72" font-weight="800">Richard Sartell</text>
  <text x="150" y="310" fill="#124f58" font-family="Segoe UI, Arial, sans-serif" font-size="36" font-weight="700">Electrical &amp; Computer Engineer</text>
  <text x="150" y="380" fill="#5f6d72" font-family="Segoe UI, Arial, sans-serif" font-size="30">Embedded Systems | Linux | Electronics | Digital Hardware</text>
  <path d="M150 448h190M380 448h160M580 448h130" stroke="#1f6f78" stroke-width="8" stroke-linecap="round"/>
  <circle cx="760" cy="448" r="10" fill="#8f5a2a"/>
</svg>
